<svg width="23" height="23" viewBox="0 0 23 23" fill="none" xmlns="http://www.w3.org/2000/svg">
<g clip-path="url(#clip0_66_485)">
<path d="M10.8574 4.33836H6.98173C5.43133 4.33836 4.65613 4.33836 4.06396 4.64008C3.54306 4.90549 3.11957 5.32899 2.85416 5.84988C2.55243 6.44206 2.55243 7.21726 2.55243 8.76766V16.5189C2.55243 18.0693 2.55243 18.8445 2.85416 19.4367C3.11957 19.9576 3.54306 20.3811 4.06396 20.6465C4.65613 20.9482 5.43133 20.9482 6.98173 20.9482H14.733C16.2834 20.9482 17.0586 20.9482 17.6508 20.6465C18.1717 20.3811 18.5952 19.9576 18.8606 19.4367C19.1623 18.8445 19.1623 18.0693 19.1623 16.5189V12.6433M8.08904 15.4116H9.63426C10.0857 15.4116 10.3114 15.4116 10.5238 15.3606C10.7121 15.3154 10.8921 15.2408 11.0572 15.1397C11.2435 15.0255 11.4031 14.8659 11.7223 14.5467L20.5465 5.72251C21.3109 4.95806 21.3109 3.71865 20.5465 2.9542C19.782 2.18975 18.5426 2.18975 17.7782 2.95419L8.95391 11.7784C8.63472 12.0976 8.47513 12.2572 8.361 12.4435C8.25981 12.6086 8.18524 12.7886 8.14003 12.9769C8.08904 13.1893 8.08904 13.415 8.08904 13.8664V15.4116Z" stroke="white" stroke-width="1.84554" stroke-linecap="round" stroke-linejoin="round"/>
</g>
<defs>
<clipPath id="clip0_66_485">
<rect width="22.1465" height="22.1465" fill="white" transform="translate(0.706909 0.646973)"/>
</clipPath>
</defs>
</svg>
