<svg width="23" height="23" viewBox="0 0 23 23" fill="none" xmlns="http://www.w3.org/2000/svg">
<path d="M15.6178 6.18376V5.44555C15.6178 4.41194 15.6178 3.89514 15.4166 3.50036C15.2397 3.1531 14.9574 2.87077 14.6101 2.69383C14.2153 2.49268 13.6985 2.49268 12.6649 2.49268H11.1885C10.1549 2.49268 9.63809 2.49268 9.24331 2.69383C8.89605 2.87077 8.61372 3.1531 8.43678 3.50036C8.23563 3.89514 8.23563 4.41194 8.23563 5.44555V6.18376M10.0812 11.259V15.8729M13.7723 11.259V15.8729M3.62177 6.18376H20.2317M18.3861 6.18376V16.5188C18.3861 18.0692 18.3861 18.8444 18.0844 19.4366C17.819 19.9575 17.3955 20.381 16.8746 20.6464C16.2824 20.9481 15.5072 20.9481 13.9568 20.9481H9.89662C8.34621 20.9481 7.57101 20.9481 6.97884 20.6464C6.45794 20.381 6.03445 19.9575 5.76904 19.4366C5.46731 18.8444 5.46731 18.0692 5.46731 16.5188V6.18376" stroke="white" stroke-width="1.84554" stroke-linecap="round" stroke-linejoin="round"/>
</svg>
